<svg width="50" height="51" viewBox="0 0 50 51" fill="none" xmlns="http://www.w3.org/2000/svg">
<g clip-path="url(#clip0_175_380)">
<path d="M25 50.6367C38.8071 50.6367 50 39.4438 50 25.6367C50 11.8296 38.8071 0.636719 25 0.636719C11.1929 0.636719 0 11.8296 0 25.6367C0 39.4438 11.1929 50.6367 25 50.6367Z" fill="#F0F0F0"/>
<path d="M19.5655 22.3759H49.7886C48.1906 10.1096 37.702 0.636719 25.0002 0.636719C23.1335 0.636719 21.3154 0.843066 19.5654 1.23096V22.3759H19.5655Z" fill="#D80027"/>
<path d="M13.0437 22.3761V3.67676C6.1792 7.42227 1.26494 14.2925 0.211914 22.3762H13.0437V22.3761Z" fill="#D80027"/>
<path d="M13.0437 28.8975H0.211914C1.26494 36.9812 6.1792 43.8514 13.0437 47.5968L13.0437 28.8975Z" fill="#D80027"/>
<path d="M19.5654 28.8976V50.0424C21.3154 50.4303 23.1335 50.6366 25.0002 50.6366C37.702 50.6366 48.1906 41.1638 49.7886 28.8975H19.5654V28.8976Z" fill="#D80027"/>
</g>
<defs>
<clipPath id="clip0_175_380">
<rect width="50" height="50" fill="white" transform="translate(0 0.636719)"/>
</clipPath>
</defs>
</svg>
