<svg width="50" height="51" viewBox="0 0 50 51" fill="none" xmlns="http://www.w3.org/2000/svg">
<g clip-path="url(#clip0_175_390)">
<path d="M0 25.4555C0 28.5135 0.550098 31.4428 1.55498 34.1511L25 36.325L48.445 34.1511C49.4499 31.4428 50 28.5135 50 25.4555C50 22.3975 49.4499 19.4682 48.445 16.7599L25 14.5859L1.55498 16.7599C0.550098 19.4682 0 22.3975 0 25.4555H0Z" fill="#FFDA44"/>
<path d="M48.4447 16.7595C44.9124 7.23955 35.7488 0.455078 24.9997 0.455078C14.2506 0.455078 5.08701 7.23955 1.55469 16.7595H48.4447Z" fill="#D80027"/>
<path d="M1.55469 34.1504C5.08701 43.6703 14.2506 50.4548 24.9997 50.4548C35.7488 50.4548 44.9124 43.6703 48.4447 34.1504H1.55469Z" fill="#D80027"/>
</g>
<defs>
<clipPath id="clip0_175_390">
<rect width="50" height="50" fill="white" transform="translate(0 0.455078)"/>
</clipPath>
</defs>
</svg>
