<svg width="50" height="51" viewBox="0 0 50 51" fill="none" xmlns="http://www.w3.org/2000/svg">
<g clip-path="url(#clip0_175_390)">
<path d="M25 50.4551C38.8071 50.4551 50 39.2622 50 25.4551C50 11.648 38.8071 0.455078 25 0.455078C11.1929 0.455078 0 11.648 0 25.4551C0 39.2622 11.1929 50.4551 25 50.4551Z" fill="#F0F0F0"/>
<path d="M24.9997 0.455078C14.2506 0.455078 5.08701 7.23945 1.55469 16.7595H48.4448C44.9124 7.23945 35.7488 0.455078 24.9997 0.455078V0.455078Z" fill="#A2001D"/>
<path d="M24.9997 50.4548C35.7488 50.4548 44.9124 43.6704 48.4447 34.1504H1.55469C5.08701 43.6704 14.2506 50.4548 24.9997 50.4548Z" fill="#0052B4"/>
</g>
<defs>
<clipPath id="clip0_175_390">
<rect width="50" height="50" fill="white" transform="translate(0 0.455078)"/>
</clipPath>
</defs>
</svg>
