<svg width="50" height="51" viewBox="0 0 50 51" fill="none" xmlns="http://www.w3.org/2000/svg">
<g clip-path="url(#clip0_175_390)">
<path d="M25 50.4551C38.8071 50.4551 50 39.2622 50 25.4551C50 11.648 38.8071 0.455078 25 0.455078C11.1929 0.455078 0 11.648 0 25.4551C0 39.2622 11.1929 50.4551 25 50.4551Z" fill="#F0F0F0"/>
<path d="M33.1198 18.9337H29.8489C29.876 19.2932 29.8913 19.6559 29.8913 20.0206C29.8913 22.439 29.2868 24.783 28.233 26.4516C27.9079 26.9662 27.3616 27.693 26.6304 28.1832V18.9336H23.3695V28.1832C22.6384 27.693 22.092 26.9663 21.7669 26.4516C20.713 24.783 20.1086 22.439 20.1086 20.0206C20.1086 19.6559 20.124 19.2931 20.151 18.9337H16.8801C16.8591 19.2914 16.8477 19.6537 16.8477 20.0206C16.8477 26.7253 20.4285 31.9772 24.9998 31.9772C29.5711 31.9772 33.152 26.7253 33.152 20.0206C33.1522 19.6537 33.1407 19.2914 33.1198 18.9337V18.9337Z" fill="#D80027"/>
<path d="M10.3259 12.4116H13.5867V14.5855H16.8476V12.4116H20.1084V14.5855H23.3692V12.4116H26.6301V14.5855H29.8909V12.4116H33.1518V14.5855H36.4126V12.4116H39.6734V14.5855H47.5188C43.4754 6.22314 34.9112 0.455078 24.9998 0.455078C15.0884 0.455078 6.52422 6.22314 2.48047 14.5855H10.3259V12.4116Z" fill="#6DA544"/>
<path d="M39.6737 36.3242V38.4981H36.4129V36.3242H33.1521V38.4981H29.8912V36.3242H26.6304V38.4981H23.3695V36.3242H20.1087V38.4981H16.8479V36.3242H13.5867V38.4981H10.3259V36.3242H2.48047C6.52422 44.6866 15.0883 50.4547 24.9998 50.4547C34.9113 50.4547 43.4754 44.6866 47.5191 36.3242H39.6737Z" fill="#D80027"/>
</g>
<defs>
<clipPath id="clip0_175_390">
<rect width="50" height="50" fill="white" transform="translate(0 0.455078)"/>
</clipPath>
</defs>
</svg>
