<svg width="50" height="51" viewBox="0 0 50 51" fill="none" xmlns="http://www.w3.org/2000/svg">
<g clip-path="url(#clip0_175_390)">
<path d="M25 50.4551C38.8071 50.4551 50 39.2622 50 25.4551C50 11.648 38.8071 0.455078 25 0.455078C11.1929 0.455078 0 11.648 0 25.4551C0 39.2622 11.1929 50.4551 25 50.4551Z" fill="#F0F0F0"/>
<path d="M49.9996 25.4551C49.9996 11.648 38.8066 0.455078 24.9996 0.455078C20.109 0.455078 15.5471 1.86084 11.6937 4.28818L17.1735 6.61641L9.78223 9.75684L17.1735 12.8972L9.78223 16.0374L17.1735 19.1775L9.78223 22.3173L17.1735 25.4568L9.78223 28.5971L17.1735 31.7371L9.78223 34.8769L17.1735 38.0169L9.78223 41.1571L17.1735 44.2969L11.6962 46.6238C15.549 49.05 20.11 50.4551 24.9996 50.4551C38.8066 50.4551 49.9996 39.2621 49.9996 25.4551Z" fill="#751A46"/>
</g>
<defs>
<clipPath id="clip0_175_390">
<rect width="50" height="50" fill="white" transform="translate(0 0.455078)"/>
</clipPath>
</defs>
</svg>
