<svg width="50" height="51" viewBox="0 0 50 51" fill="none" xmlns="http://www.w3.org/2000/svg">
<g clip-path="url(#clip0_175_380)">
<path d="M1.55469 34.332C5.08701 43.852 14.2506 50.6364 24.9997 50.6364C35.7488 50.6364 44.9124 43.852 48.4447 34.332L24.9997 32.1582L1.55469 34.332Z" fill="#FFDA44"/>
<path d="M24.9997 0.636719C14.2506 0.636719 5.08701 7.42109 1.55469 16.9411L24.9997 19.1149L48.4447 16.941C44.9124 7.42109 35.7488 0.636719 24.9997 0.636719Z" fill="black"/>
<path d="M1.55498 16.9414C0.550098 19.6497 0 22.579 0 25.637C0 28.695 0.550098 31.6243 1.55498 34.3326H48.4451C49.45 31.6243 50 28.695 50 25.637C50 22.579 49.45 19.6497 48.445 16.9414H1.55498Z" fill="#D80027"/>
</g>
<defs>
<clipPath id="clip0_175_380">
<rect width="50" height="50" fill="white" transform="translate(0 0.636719)"/>
</clipPath>
</defs>
</svg>
