<svg width="50" height="51" viewBox="0 0 50 51" fill="none" xmlns="http://www.w3.org/2000/svg">
<g clip-path="url(#clip0_175_380)">
<path d="M25 50.6367C38.8071 50.6367 50 39.4438 50 25.6367C50 11.8296 38.8071 0.636719 25 0.636719C11.1929 0.636719 0 11.8296 0 25.6367C0 39.4438 11.1929 50.6367 25 50.6367Z" fill="#6DA544"/>
<path d="M14.1299 30.5283C14.1299 32.3292 15.5898 33.7892 17.3907 33.7892H27.1733C27.1733 35.2899 28.3899 36.5065 29.8907 36.5065H33.1516C34.6523 36.5065 35.8689 35.2899 35.8689 33.7892V30.5283H14.1299Z" fill="#F0F0F0"/>
<path d="M36.1407 14.7676V22.3763C36.1407 23.575 35.1655 24.5502 33.9668 24.5502V27.811C36.9636 27.811 39.4016 25.3729 39.4016 22.3763V14.7676H36.1407Z" fill="#F0F0F0"/>
<path d="M12.7716 22.3763C12.7716 23.575 11.7964 24.5502 10.5977 24.5502V27.811C13.5944 27.811 16.0324 25.3729 16.0324 22.3763V14.7676H12.7716V22.3763Z" fill="#F0F0F0"/>
<path d="M31.25 14.7676H34.5108V22.3763H31.25V14.7676Z" fill="#F0F0F0"/>
<path d="M26.3587 19.1154C26.3587 19.4151 26.1148 19.6589 25.8152 19.6589C25.5156 19.6589 25.2718 19.415 25.2718 19.1154V14.7676H22.0109V19.1154C22.0109 19.4151 21.7671 19.6589 21.4675 19.6589C21.1679 19.6589 20.924 19.415 20.924 19.1154V14.7676H17.6631V19.1154C17.6631 21.2132 19.3697 22.9198 21.4675 22.9198C22.2754 22.9198 23.0246 22.6659 23.6414 22.2347C24.2581 22.6658 25.0074 22.9198 25.8153 22.9198C25.978 22.9198 26.138 22.9084 26.2953 22.8884C26.0643 23.8404 25.2068 24.5502 24.1849 24.5502V27.811C27.1816 27.811 29.6196 25.3729 29.6196 22.3763V19.1154V14.7676H26.3588V19.1154H26.3587Z" fill="#F0F0F0"/>
<path d="M17.6631 24.5498H22.5544V27.8106H17.6631V24.5498Z" fill="#F0F0F0"/>
</g>
<defs>
<clipPath id="clip0_175_380">
<rect width="50" height="50" fill="white" transform="translate(0 0.636719)"/>
</clipPath>
</defs>
</svg>
