<svg width="50" height="51" viewBox="0 0 50 51" fill="none" xmlns="http://www.w3.org/2000/svg">
<g clip-path="url(#clip0_175_380)">
<path d="M25 50.6367C38.8071 50.6367 50 39.4438 50 25.6367C50 11.8296 38.8071 0.636719 25 0.636719C11.1929 0.636719 0 11.8296 0 25.6367C0 39.4438 11.1929 50.6367 25 50.6367Z" fill="#F0F0F0"/>
<path d="M24.9998 0.636719C15.0883 0.636719 6.52422 6.40479 2.48047 14.7672H47.519C43.4754 6.40479 34.9112 0.636719 24.9998 0.636719V0.636719Z" fill="#338AF3"/>
<path d="M24.9998 50.6363C34.9112 50.6363 43.4754 44.8683 47.5191 36.5059H2.48047C6.52422 44.8683 15.0883 50.6363 24.9998 50.6363Z" fill="#338AF3"/>
<path d="M32.4717 25.6364L29.4185 27.0727L31.0443 30.0296L27.7289 29.3953L27.3088 32.7445L24.9995 30.2813L22.6901 32.7445L22.2701 29.3953L18.9547 30.0295L20.5805 27.0726L17.5273 25.6364L20.5806 24.2002L18.9547 21.2434L22.27 21.8775L22.6902 18.5283L24.9995 20.9916L27.3089 18.5283L27.7289 21.8775L31.0444 21.2434L29.4186 24.2003L32.4717 25.6364Z" fill="#FFDA44"/>
</g>
<defs>
<clipPath id="clip0_175_380">
<rect width="50" height="50" fill="white" transform="translate(0 0.636719)"/>
</clipPath>
</defs>
</svg>

