<svg width="50" height="51" viewBox="0 0 50 51" fill="none" xmlns="http://www.w3.org/2000/svg">
<g clip-path="url(#clip0_175_380)">
<path d="M50 25.6371C50 22.5791 49.4499 19.6497 48.445 16.9415L25 15.8545L1.55498 16.9414C0.550098 19.6497 0 22.5791 0 25.6371C0 28.6951 0.550098 31.6245 1.55498 34.3327L25 35.4197L48.445 34.3328C49.4499 31.6245 50 28.6951 50 25.6371Z" fill="#F0F0F0"/>
<path d="M24.9997 50.6364C35.7488 50.6364 44.9124 43.8521 48.4447 34.332H1.55469C5.08701 43.8521 14.2506 50.6364 24.9997 50.6364Z" fill="#0052B4"/>
<path d="M1.55469 16.9411H48.4448C44.9124 7.42109 35.7488 0.636719 24.9997 0.636719C14.2506 0.636719 5.08701 7.42109 1.55469 16.9411V16.9411Z" fill="#D80027"/>
<path d="M31.5217 18.0277H27.1738L27.8985 12.5929L30.797 10.4189L33.6955 12.5929V16.9407L31.5217 18.0277Z" fill="#338AF3"/>
<path d="M18.4785 18.0277H22.8264L22.1017 12.5929L19.2031 10.4189L16.3047 12.5929V16.9407L18.4785 18.0277Z" fill="#338AF3"/>
<path d="M27.8988 18.0277H22.1016V12.5929L25.0002 10.4189L27.8988 12.5929V18.0277Z" fill="#0052B4"/>
<path d="M16.3047 16.9414V28.8979C16.3047 31.7448 17.6799 34.2767 19.801 35.8639L21.3228 35.4831L23.2431 37.4149C23.8109 37.5319 24.3985 37.5936 25.0004 37.5936C25.599 37.5936 26.1837 37.5327 26.7485 37.4169L28.9406 35.5917L30.1996 35.8604C32.3198 34.2732 33.696 31.744 33.696 28.8979V16.9414H16.3047Z" fill="#F0F0F0"/>
<path d="M16.3047 16.9414H19.7829V20.4196H16.3047V16.9414Z" fill="#D80027"/>
<path d="M23.2607 16.9414H26.739V20.4196H23.2607V16.9414Z" fill="#D80027"/>
<path d="M30.2178 16.9414H33.696V20.4196H30.2178V16.9414Z" fill="#D80027"/>
<path d="M19.7832 20.4199H23.2614V23.8981H19.7832V20.4199Z" fill="#D80027"/>
<path d="M26.7393 20.4199H30.2175V23.8981H26.7393V20.4199Z" fill="#D80027"/>
<path d="M16.3047 23.8965H19.7829V27.3747H16.3047V23.8965Z" fill="#D80027"/>
<path d="M19.7832 27.375H23.2614V30.8532H19.7832V27.375Z" fill="#D80027"/>
<path d="M23.2607 23.8965H26.739V27.3747H23.2607V23.8965Z" fill="#D80027"/>
<path d="M30.2178 23.8965H33.696V27.3747H30.2178V23.8965Z" fill="#D80027"/>
<path d="M26.7393 27.375H30.2175V30.8532H26.7393V27.375Z" fill="#D80027"/>
<path d="M23.2607 30.8535H26.739V34.3317H23.2607V30.8535Z" fill="#D80027"/>
<path d="M19.7831 30.8535H16.5293C16.8277 32.1465 17.4145 33.3296 18.2189 34.3317H19.7831V30.8535Z" fill="#D80027"/>
<path d="M30.2178 34.3317H31.7818C32.5865 33.3296 33.173 32.1464 33.4715 30.8535H30.2178V34.3317Z" fill="#D80027"/>
<path d="M19.7832 34.332V35.8497C20.7948 36.6109 21.977 37.1567 23.2614 37.4187V34.332H19.7832Z" fill="#D80027"/>
<path d="M26.7393 34.332V37.4187C28.0237 37.1569 29.2059 36.6109 30.2175 35.8497V34.332H26.7393Z" fill="#D80027"/>
</g>
<defs>
<clipPath id="clip0_175_380">
<rect width="50" height="50" fill="white" transform="translate(0 0.636719)"/>
</clipPath>
</defs>
</svg>
