<svg width="50" height="51" viewBox="0 0 50 51" fill="none" xmlns="http://www.w3.org/2000/svg">
<g clip-path="url(#clip0_175_390)">
<path d="M25 50.4551C38.8071 50.4551 50 39.2622 50 25.4551C50 11.648 38.8071 0.455078 25 0.455078C11.1929 0.455078 0 11.648 0 25.4551C0 39.2622 11.1929 50.4551 25 50.4551Z" fill="#F0F0F0"/>
<path d="M49.9997 25.4548C49.9997 14.7057 43.2153 5.54209 33.6953 2.00977V48.8999C43.2153 45.3675 49.9997 36.2039 49.9997 25.4548V25.4548Z" fill="#D80027"/>
<path d="M0 25.4548C0 36.2039 6.78447 45.3675 16.3044 48.8998V2.00977C6.78447 5.54209 0 14.7057 0 25.4548Z" fill="#0052B4"/>
</g>
<defs>
<clipPath id="clip0_175_390">
<rect width="50" height="50" fill="white" transform="translate(0 0.455078)"/>
</clipPath>
</defs>
</svg>
