<svg width="50" height="51" viewBox="0 0 50 51" fill="none" xmlns="http://www.w3.org/2000/svg">
<g clip-path="url(#clip0_175_390)">
<path d="M25 50.4551C38.8071 50.4551 50 39.2622 50 25.4551C50 11.648 38.8071 0.455078 25 0.455078C11.1929 0.455078 0 11.648 0 25.4551C0 39.2622 11.1929 50.4551 25 50.4551Z" fill="#D80027"/>
<path d="M39.774 20.9713H28.4875L24.9998 10.2373L21.5121 20.9713H10.2256L19.3565 27.6053L15.8687 38.3396L24.9998 31.7055L34.1309 38.3396L30.6431 27.6054L39.774 20.9713ZM21.9121 26.7749L23.0915 23.1451H26.908L28.0875 26.7749V26.775L24.9998 29.0183L21.9122 26.775L21.9121 26.7749ZM26.2018 20.9713H23.7979L24.9998 17.2721L26.2018 20.9713ZM29.9366 25.4314L29.1937 23.1452H33.0833L29.9366 25.4314ZM20.8058 23.1452L20.0629 25.4314L16.9161 23.1452H20.8058ZM20.0038 32.6481L21.2058 28.949L23.1506 30.3619L20.0038 32.6481ZM26.849 30.362L28.7938 28.9491L29.9958 32.6482L26.849 30.362Z" fill="#FFDA44"/>
</g>
<defs>
<clipPath id="clip0_175_390">
<rect width="50" height="50" fill="white" transform="translate(0 0.455078)"/>
</clipPath>
</defs>
</svg>
