<svg width="50" height="51" viewBox="0 0 50 51" fill="none" xmlns="http://www.w3.org/2000/svg">
<g clip-path="url(#clip0_175_390)">
<path d="M25 50.8184C38.8071 50.8184 50 39.6255 50 25.8184C50 12.0112 38.8071 0.818359 25 0.818359C11.1929 0.818359 0 12.0112 0 25.8184C0 39.6255 11.1929 50.8184 25 50.8184Z" fill="#F0F0F0"/>
<path d="M25 19.2962H49.1388C48.5119 16.9706 47.5592 14.7791 46.3307 12.7744H25V19.2962Z" fill="#338AF3"/>
<path d="M9.4374 45.3831H40.5617C42.8433 43.5659 44.7999 41.3587 46.3302 38.8613H3.66895C5.19932 41.3586 7.15596 43.5659 9.4374 45.3831V45.3831Z" fill="#338AF3"/>
<path d="M25 0.818359V6.25313H40.5622C36.2917 2.85195 30.8837 0.818359 25 0.818359V0.818359Z" fill="#338AF3"/>
<path d="M25 19.2962H49.1388C48.5119 16.9706 47.5592 14.7791 46.3307 12.7744H25V19.2962Z" fill="#338AF3"/>
<path d="M0 25.8184C0 28.0749 0.300781 30.2606 0.86123 32.3401H49.1389C49.6992 30.2606 50 28.0749 50 25.8184H0Z" fill="#338AF3"/>
<path d="M21.7393 15.4498L18.6859 16.886L20.3118 19.8431L16.9964 19.2089L16.5763 22.558L14.2671 20.0947L11.9577 22.558L11.5377 19.2089L8.22227 19.8429L9.84805 16.8859L6.79492 15.4498L9.84814 14.0138L8.22227 11.0567L11.5376 11.6909L11.9578 8.3418L14.2671 10.8051L16.5764 8.3418L16.9964 11.6909L20.3119 11.0567L18.686 14.0139L21.7393 15.4498Z" fill="#FFDA44"/>
</g>
<defs>
<clipPath id="clip0_175_390">
<rect width="50" height="50" fill="white" transform="translate(0 0.818359)"/>
</clipPath>
</defs>
</svg>
