<svg width="50" height="51" viewBox="0 0 50 51" fill="none" xmlns="http://www.w3.org/2000/svg">
<g clip-path="url(#clip0_175_380)">
<path d="M50 25.6367C50 39.4438 38.807 50.6367 25 50.6367C11.193 50.6367 0 39.4438 0 25.6367C0 25.6426 25 0.639551 25 0.636719C38.807 0.636719 50 11.8297 50 25.6367Z" fill="#0052B4"/>
<path d="M24.9336 25.6372H25.0005C25.0005 25.6146 25.0005 25.5929 25.0005 25.5703C24.9782 25.5927 24.956 25.6149 24.9336 25.6372Z" fill="#F0F0F0"/>
<path d="M25 13.6802C25 9.28125 25 6.39873 25 0.636719H24.9958C11.1906 0.638965 0 11.8309 0 25.6366H13.0435V18.2917L20.3884 25.6366H24.9332C24.9556 25.6144 24.9778 25.5921 25.0001 25.5697C25.0001 23.8855 25.0001 22.3826 25.0001 21.0252L17.6551 13.6802H25Z" fill="#F0F0F0"/>
<path d="M12.6479 3.89746C8.73779 6.12393 5.48721 9.37451 3.26074 13.2846V25.6366H9.78252V10.4193V10.4192H24.9999C24.9999 8.36231 24.9999 6.40273 24.9999 3.89746H12.6479Z" fill="#D80027"/>
<path d="M24.9994 22.5627L16.1173 13.6807H13.043C13.043 13.6806 13.043 13.6807 13.043 13.6807L24.9993 25.6371H24.9994C24.9994 25.6371 24.9994 23.5174 24.9994 22.5627Z" fill="#D80027"/>
<path d="M15.0774 29.9844L16.4495 32.8533L19.5479 32.1372L18.1604 34.9987L20.652 36.9746L17.5497 37.6738L17.5584 40.8539L15.0774 38.8644L12.5966 40.8539L12.6053 37.6738L9.50293 36.9746L11.9946 34.9987L10.6069 32.1372L13.7055 32.8533L15.0774 29.9844Z" fill="#F0F0F0"/>
<path d="M37.4298 35.4189L38.1158 36.8534L39.665 36.4953L38.9712 37.9261L40.2171 38.9141L38.6659 39.2637L38.6702 40.8537L37.4298 39.8589L36.1894 40.8537L36.1937 39.2637L34.6426 38.9141L35.8884 37.9261L35.1946 36.4953L36.7438 36.8534L37.4298 35.4189Z" fill="#F0F0F0"/>
<path d="M31.048 20.2012L31.734 21.6357L33.2832 21.2775L32.5895 22.7083L33.8353 23.6963L32.2842 24.0459L32.2884 25.6359L31.048 24.6411L29.8076 25.6359L29.8118 24.0459L28.2607 23.6963L29.5065 22.7083L28.8128 21.2775L30.362 21.6357L31.048 20.2012Z" fill="#F0F0F0"/>
<path d="M37.4298 11.5059L38.1158 12.9404L39.665 12.5823L38.9713 14.0131L40.217 15.001L38.6659 15.3507L38.6702 16.9407L37.4298 15.9459L36.1894 16.9407L36.1937 15.3507L34.6426 15.001L35.8883 14.0131L35.1946 12.5823L36.7438 12.9404L37.4298 11.5059Z" fill="#F0F0F0"/>
<path d="M43.0041 18.0273L43.69 19.4619L45.2393 19.1037L44.5455 20.5345L45.7913 21.5225L44.2401 21.8722L44.2444 23.4621L43.0041 22.4674L41.7637 23.4621L41.7679 21.8722L40.2168 21.5225L41.4626 20.5345L40.7688 19.1037L42.318 19.4619L43.0041 18.0273Z" fill="#F0F0F0"/>
<path d="M39.0183 25.6367L39.5578 27.2975H41.3041L39.8913 28.3239L40.4311 29.9846L39.0183 28.9582L37.6056 29.9846L38.1451 28.3239L36.7324 27.2975H38.4786L39.0183 25.6367Z" fill="#F0F0F0"/>
</g>
<defs>
<clipPath id="clip0_175_380">
<rect width="50" height="50" fill="white" transform="translate(0 0.636719)"/>
</clipPath>
</defs>
</svg>

