<svg width="50" height="51" viewBox="0 0 50 51" fill="none" xmlns="http://www.w3.org/2000/svg">
<g clip-path="url(#clip0_175_390)">
<path d="M0 25.4551C0 11.648 11.193 0.455078 25 0.455078C38.807 0.455078 50 11.648 50 25.4551L25 27.629L0 25.4551Z" fill="#FFDA44"/>
<path d="M3.3457 37.9547C7.66846 45.427 15.747 50.4547 25.0004 50.4547C34.2538 50.4547 42.3323 45.427 46.6551 37.9547L25.0004 36.3242L3.3457 37.9547Z" fill="#D80027"/>
<path d="M46.6547 37.9551C48.7818 34.2779 50 30.0089 50 25.4551H0C0 30.0089 1.21816 34.2779 3.34531 37.9551H46.6547Z" fill="#0052B4"/>
<path d="M25.0003 34.151C29.8027 34.151 33.6959 30.2578 33.6959 25.4554C33.6959 20.6529 29.8027 16.7598 25.0003 16.7598C20.1978 16.7598 16.3047 20.6529 16.3047 25.4554C16.3047 30.2578 20.1978 34.151 25.0003 34.151Z" fill="#FFDA44"/>
<path d="M25.0002 30.8901C22.0034 30.8901 19.5654 28.4521 19.5654 25.4554V22.1945C19.5654 19.1978 22.0035 16.7598 25.0002 16.7598C27.9969 16.7598 30.435 19.1979 30.435 22.1945V25.4554C30.435 28.4521 27.997 30.8901 25.0002 30.8901Z" fill="#338AF3"/>
<path d="M33.6961 12.4112H27.1743C27.1743 11.2106 26.201 10.2373 25.0004 10.2373C23.7998 10.2373 22.8265 11.2106 22.8265 12.4112H16.3047C16.3047 13.6119 17.3505 14.5852 18.551 14.5852H18.4786C18.4786 15.7858 19.4519 16.7591 20.6525 16.7591C20.6525 17.9598 21.6258 18.933 22.8265 18.933H27.1743C28.375 18.933 29.3482 17.9598 29.3482 16.7591C30.5489 16.7591 31.5222 15.7858 31.5222 14.5852H31.4498C32.6504 14.5852 33.6961 13.6118 33.6961 12.4112V12.4112Z" fill="black"/>
</g>
<defs>
<clipPath id="clip0_175_390">
<rect width="50" height="50" fill="white" transform="translate(0 0.455078)"/>
</clipPath>
</defs>
</svg>
