<svg width="50" height="51" viewBox="0 0 50 51" fill="none" xmlns="http://www.w3.org/2000/svg">
<g clip-path="url(#clip0_175_390)">
<path d="M25 50.4551C38.8071 50.4551 50 39.2622 50 25.4551C50 11.648 38.8071 0.455078 25 0.455078C11.1929 0.455078 0 11.648 0 25.4551C0 39.2622 11.1929 50.4551 25 50.4551Z" fill="#F0F0F0"/>
<path d="M49.7884 22.1942H28.261H28.2609V0.666699C27.1935 0.527734 26.1052 0.455078 25 0.455078C23.8948 0.455078 22.8065 0.527734 21.7392 0.666699V22.194V22.1941H0.211621C0.0726563 23.2616 0 24.3497 0 25.4551C0 26.5604 0.0726563 27.6485 0.211621 28.7159H21.739H21.7391V50.2435C22.8065 50.3824 23.8948 50.4551 25 50.4551C26.1052 50.4551 27.1935 50.3825 28.2608 50.2435V28.7161V28.716H49.7884C49.9273 27.6485 50 26.5604 50 25.4551C50 24.3497 49.9273 23.2616 49.7884 22.1942V22.1942Z" fill="#D80027"/>
</g>
<defs>
<clipPath id="clip0_175_390">
<rect width="50" height="50" fill="white" transform="translate(0 0.455078)"/>
</clipPath>
</defs>
</svg>

