<svg width="50" height="51" viewBox="0 0 50 51" fill="none" xmlns="http://www.w3.org/2000/svg">
<g clip-path="url(#clip0_175_390)">
<path d="M25 50.4551C38.8071 50.4551 50 39.2622 50 25.4551C50 11.648 38.8071 0.455078 25 0.455078C11.1929 0.455078 0 11.648 0 25.4551C0 39.2622 11.1929 50.4551 25 50.4551Z" fill="#F0F0F0"/>
<path d="M49.9996 25.4549C49.9996 15.5434 44.2315 6.9793 35.8691 2.93555V47.9741C44.2315 43.9305 49.9996 35.3664 49.9996 25.4549V25.4549Z" fill="#D80027"/>
<path d="M0 25.4549C0 35.3664 5.76807 43.9305 14.1305 47.9742V2.93555C5.76807 6.9793 0 15.5434 0 25.4549Z" fill="#6DA544"/>
<path d="M18.4785 25.4552C18.4785 29.057 21.3984 31.977 25.0003 31.977C28.6021 31.977 31.5221 29.057 31.5221 25.4552V23.2812H18.4785V25.4552Z" fill="#6DA544"/>
<path d="M33.6961 21.1075H27.1743C27.1743 19.9069 26.201 18.9336 25.0004 18.9336C23.7998 18.9336 22.8265 19.9069 22.8265 21.1075H16.3047C16.3047 22.3082 17.3505 23.2814 18.551 23.2814H18.4786C18.4786 24.4821 19.4519 25.4554 20.6525 25.4554C20.6525 26.6561 21.6258 27.6293 22.8265 27.6293H27.1743C28.375 27.6293 29.3482 26.6561 29.3482 25.4554C30.5489 25.4554 31.5222 24.4821 31.5222 23.2814H31.4497C32.6504 23.2814 33.6961 22.3082 33.6961 21.1075Z" fill="#FF9811"/>
</g>
<defs>
<clipPath id="clip0_175_390">
<rect width="50" height="50" fill="white" transform="translate(0 0.455078)"/>
</clipPath>
</defs>
</svg>
